<mxfile host="app.diagrams.net" modified="2023-11-15T08:48:47.347Z" agent="Mozilla/5.0 (Windows NT 10.0; Win64; x64) AppleWebKit/537.36 (KHTML, like Gecko) Chrome/119.0.0.0 Safari/537.36 Edg/119.0.0.0" version="22.1.1" etag="fP5eJQ-5rGNSa3qIpQav" type="github">
  <diagram name="第 1 页" id="1mtvXKHScjgoNmq2-uC5">
    <mxGraphModel>
      <root>
        <mxCell id="0" />
        <mxCell id="1" parent="0" />
      </root>
    </mxGraphModel>
  </diagram>
</mxfile>
